<?xml version="1.0" encoding="utf-8"?>
<!-- Generator: Adobe Illustrator 18.1.1, SVG Export Plug-In . SVG Version: 6.00 Build 0)  -->
<svg version="1.1" id="Layer_1" xmlns="http://www.w3.org/2000/svg" xmlns:xlink="http://www.w3.org/1999/xlink" x="0px" y="0px"
	 viewBox="0 0 110 110" enable-background="new 0 0 110 110" xml:space="preserve">
<symbol  id="Arrow_25" viewBox="-22.9 -13.1 45.7 26.3">
	<polygon fill="none" points="-22.9,-13.1 22.9,-13.1 22.9,13.1 -22.9,13.1 	"/>
	<g>
		<polygon fill="#747474" points="-22.9,-3.2 0.1,-3.2 0.1,-13.1 22.9,0 0.1,13.1 0.1,3.2 -22.9,3.2 		"/>
	</g>
</symbol>
<polyline fill="none" stroke="#747474" stroke-width="5.2632" stroke-miterlimit="10" points="100.4,71 106.6,66.1 106.4,39.2 
	26.1,24.3 6.4,41.5 6.6,66 68.4,78.3 "/>
<polyline fill="none" stroke="#747474" stroke-width="5.2632" stroke-miterlimit="10" points="8.6,41.5 86,57 105.4,41.1 "/>
<polyline fill="none" stroke="#747474" stroke-width="5.2632" stroke-miterlimit="10" points="6.5,49.4 86.6,65.4 105.4,51.6 "/>
<path fill="none" stroke="#747474" stroke-width="5.2632" stroke-miterlimit="10" d="M91.8,71c4.9-3,9.3-6.7,13.7-10.4"/>
<path fill="none" stroke="#747474" stroke-width="5.2632" stroke-miterlimit="10" d="M6.5,58.6c20.8,2.3,40.7,8.8,61.3,12.3"/>
<polygon fill="#747474" points="56.1,29.9 38.6,47.5 36.2,71.9 50.5,74.8 54,50.6 70.4,32.5 "/>
<polygon fill="#747474" points="36.2,71.9 34.9,80.3 42.4,78 48.1,82.1 49.6,77 "/>
<g>
	<g>
		<path fill="#747474" d="M60.4,90.5c1.6,0,3.3,0,4.5-0.4V74.2c-1.6,0-2.8-0.4-4.5-0.4c-8.9,0-16.7,3.3-16.7,7.3v1.6
			C44.1,87.2,51.5,90.5,60.4,90.5z"/>
		<path fill="#747474" d="M60.4,98.6c1.6,0,3.3,0,4.5-0.4v-4.9c-1.6,0-2.8,0.4-4.5,0.4c-8.1,0-14.6-2.4-16.3-6.1
			c-0.4,0.4-0.4,0.8-0.4,1.6v1.6C44.1,95.4,51.5,98.6,60.4,98.6z"/>
		<path fill="#747474" d="M84.4,61.2c-8.9,0-16.7,3.3-16.7,7.3v1.6c0,4.1,7.3,7.3,16.7,7.3c8.9,0,16.7-3.3,16.7-7.3v-1.6
			C100.7,64.4,93.3,61.2,84.4,61.2z"/>
		<path fill="#747474" d="M84.4,81.5c-8.1,0-14.6-2.4-16.3-6.1c-0.4,0.4-0.4,0.8-0.4,1.6v1.6c0,4.1,7.3,7.3,16.7,7.3
			c8.9,0,16.7-3.3,16.7-7.3v-1.6c0-0.4,0-1.2-0.4-1.6C99,79.1,92.1,81.5,84.4,81.5z"/>
		<path fill="#747474" d="M84.4,89.7c-8.1,0-14.6-2.4-16.3-6.1c-0.4,0.4-0.4,0.8-0.4,1.6v1.6c0,4.1,7.3,7.3,16.7,7.3
			c8.9,0,16.7-3.3,16.7-7.3v-1.6c0-0.4,0-1.2-0.4-1.6C99,87.2,92.1,89.7,84.4,89.7z"/>
		<path fill="#747474" d="M84.4,98.6c-8.1,0-14.6-2.4-16.3-6.1c-0.4,0.4-0.4,0.8-0.4,1.6v1.6c0,4.1,7.3,7.3,16.7,7.3
			c8.9,0,16.7-3.3,16.7-7.3v-1.6c0-0.4,0-1.2-0.4-1.6C99,96.2,92.1,98.6,84.4,98.6z"/>
	</g>
</g>
</svg>
