<?xml version="1.0" encoding="utf-8"?>
<!-- Generator: Adobe Illustrator 18.1.1, SVG Export Plug-In . SVG Version: 6.00 Build 0)  -->
<svg version="1.1" id="Layer_1" xmlns="http://www.w3.org/2000/svg" xmlns:xlink="http://www.w3.org/1999/xlink" x="0px" y="0px"
	 viewBox="0 0 110 110" enable-background="new 0 0 110 110" xml:space="preserve">
<g>
	<g>
		<path fill="#747474" d="M83.7,87v-9.7c-0.2,0.3-0.4,0.5-0.6,0.8c0.6,0.7,0.6,1.7-0.3,2.3c-1.5,1-3.3,1.4-5,1.8v4.4H54.1l-1.5-4.9
			h22.1c-0.3-0.7,0-1.7,0.9-2c0.4-0.1,0.7-0.2,1-0.4c-1.3-1.1-2.6-2.2-3.8-3.3v0.8h-1.6c-0.5,1.6-2.1,2.3-3.7,2.3
			c-0.7,0.5-1.7,0.3-2.2-0.4c0,0,0,0,0,0c-0.2-0.1-0.5-0.2-0.7-0.3c-1-0.6-1.7-1.4-2.2-2.2v0.8H52.1V50.9h10.4v1.9
			c0.4,0,0.9,0.1,1.2,0.4c0.2-0.3,0.5-0.6,0.9-0.7c0.9-0.2,1.9-0.4,2.8-0.6v-1h5.4v0.3c1-0.1,1.9-0.1,2.9-0.1c0-0.4,0.1-0.8,0.1-1.1
			c0.2-2,2.8-1.9,3,0c0,0.3,0.1,0.6,0.1,0.9c1.5,0,9.2,0,9.2,0V36.6L44.7,14.9L0.8,36.6v14.3h10.4v25.7H6.2V87H1.3v15.3h87.3V87
			H83.7z M6.2,45.5v-5.9l38.5-18.8l38.5,18.8v5.9H6.2z M46.7,50.9v25.7h-4.9V50.9H46.7z M21.5,50.9v25.7h-5.4V50.9H21.5z M32.4,96.8
			H6.2v-5.4h27.6L32.4,96.8z M34.8,86.5H11.2v-4.9h25.2L34.8,86.5z M36.8,76.1H26.5V50.9h10.4V76.1z M37.3,96.8l3.9-15.3h6.4
			l3.9,15.3H37.3z M82.7,97.3H56.6l-1.5-5.4h27.6V97.3z"/>
		<path fill="#747474" d="M66.1,71.3c0.1,0.3,0.1,0.6,0.1,0.8c0,0.2,0,0.3-0.1,0.5c0.1,0.5,0.3,1,0.4,1.4c0.2-0.6,0.3-1.2,0.4-1.9
			c-0.3-0.5-0.7-1-1.1-1.5C65.9,70.8,66,71,66.1,71.3z"/>
	</g>
</g>
<path fill="#747474" d="M55.9,35.2H21.5v6.9h35.4C56.6,39.8,56.1,37.5,55.9,35.2z"/>
<path fill="#747474" d="M81.7,35.2c-15.6,0-28.3,12.7-28.3,28.3s12.7,28.3,28.3,28.3c15.6,0,28.3-12.7,28.3-28.3
	S97.3,35.2,81.7,35.2z M79.9,81.5L63,64.6l5.3-4.3l9,6.8c0,0,12.1-15.6,22.8-19.4l2.7,2.7C102.8,50.5,89.1,61.4,79.9,81.5z"/>
</svg>
