<?xml version="1.0" encoding="utf-8"?>
<!-- Generator: Adobe Illustrator 18.1.1, SVG Export Plug-In . SVG Version: 6.00 Build 0)  -->
<svg version="1.1" id="Layer_1" xmlns="http://www.w3.org/2000/svg" xmlns:xlink="http://www.w3.org/1999/xlink" x="0px" y="0px"
	 viewBox="0 0 24 24" enable-background="new 0 0 24 24" xml:space="preserve">
<g>
	<g>
		<path fill="#747474" d="M10.2,18.9c0.4,0,0.9,0,1.2-0.1v-4.3c-0.4,0-0.8-0.1-1.2-0.1c-2.4,0-4.5,0.9-4.5,2v0.4
			C5.8,18.1,7.8,18.9,10.2,18.9z"/>
		<path fill="#747474" d="M10.2,21.1c0.4,0,0.9,0,1.2-0.1v-1.3c-0.4,0-0.8,0.1-1.2,0.1c-2.2,0-3.9-0.7-4.4-1.6
			c-0.1,0.1-0.1,0.2-0.1,0.4V19C5.8,20.2,7.8,21.1,10.2,21.1z"/>
		<path fill="#747474" d="M16.6,11.1c-2.4,0-4.5,0.9-4.5,2v0.4c0,1.1,2,2,4.5,2c2.4,0,4.5-0.9,4.5-2V13C21,11.9,19,11.1,16.6,11.1z"
			/>
		<path fill="#747474" d="M16.6,16.5c-2.2,0-3.9-0.7-4.4-1.6c-0.1,0.1-0.1,0.2-0.1,0.4v0.4c0,1.1,2,2,4.5,2c2.4,0,4.5-0.9,4.5-2
			v-0.4c0-0.1,0-0.3-0.1-0.4C20.6,15.9,18.7,16.5,16.6,16.5z"/>
		<path fill="#747474" d="M16.6,18.7c-2.2,0-3.9-0.7-4.4-1.6c-0.1,0.1-0.1,0.2-0.1,0.4V18c0,1.1,2,2,4.5,2c2.4,0,4.5-0.9,4.5-2v-0.4
			c0-0.1,0-0.3-0.1-0.4C20.6,18.1,18.7,18.7,16.6,18.7z"/>
		<path fill="#747474" d="M16.6,21.1c-2.2,0-3.9-0.7-4.4-1.6c-0.1,0.1-0.1,0.2-0.1,0.4v0.4c0,1.1,2,2,4.5,2c2.4,0,4.5-0.9,4.5-2
			v-0.4c0-0.1,0-0.3-0.1-0.4C20.6,20.5,18.7,21.1,16.6,21.1z"/>
	</g>
</g>
<polyline fill="none" stroke="#747474" stroke-width="1.6996" stroke-miterlimit="10" points="9.5,17.3 3.7,17.3 3.7,2.8 17.7,2.8 
	17.7,14.8 "/>
<rect x="6.2" y="6" fill="#747474" width="8.9" height="1.5"/>
<rect x="6.2" y="9.3" fill="#747474" width="8.9" height="1.5"/>
<rect x="6.2" y="12.1" fill="#747474" width="8.9" height="1.5"/>
</svg>
