<?xml version="1.0" encoding="utf-8"?>
<!-- Generator: Adobe Illustrator 18.1.1, SVG Export Plug-In . SVG Version: 6.00 Build 0)  -->
<svg version="1.1" id="Layer_1" xmlns="http://www.w3.org/2000/svg" xmlns:xlink="http://www.w3.org/1999/xlink" x="0px" y="0px"
	 viewBox="0 0 24 24" enable-background="new 0 0 24 24" xml:space="preserve">
<g>
	<g>
		<path fill="#747474" d="M15.8,12.9c-0.3,0.2-0.6,0.5-0.8,0.8l-1.3,1.6l2.5,2.5v-2.2h2.2L15.8,12.9z"/>
	</g>
</g>
<g>
	<g>
		<path fill="#747474" d="M19.8,3.6C18.3,2.1,16.2,2,15,3.3l-3.6,4.8c1.1,0.3,2,0.8,2.8,1.8c0.5,0.6,1,1.4,1.2,2.2l4.9-3.6
			C21.4,7.2,21.2,5,19.8,3.6z"/>
	</g>
</g>
<g>
	<g>
		<path fill="#747474" d="M13.3,10.5c-0.7-0.8-1.7-1.4-2.8-1.5c-0.1,0.1-0.2,0.2-0.3,0.3L9.9,9.6c1.1,0.3,2,1,2.8,1.8
			c0.5,0.6,1,1.4,1.2,2.2l0.3-0.3c0.1-0.1,0.2-0.2,0.3-0.3C14.2,12,13.9,11.1,13.3,10.5z"/>
	</g>
</g>
<g>
	<g>
		<path fill="#747474" d="M11.8,12c-0.7-0.8-1.9-1.4-3.1-1.6l-2.5,2c1.2,0.1,2.3,0.5,3.3,1.5s1.4,2.1,1.5,3.3l2-2.6
			C12.8,13.7,12.4,12.7,11.8,12z"/>
	</g>
</g>
<g>
	<g>
		<path fill="#747474" d="M9,15.2l-2.2,2.2L9,19.6C10.2,18.4,10.1,16.5,9,15.2z"/>
	</g>
</g>
<g>
	<g>
		<path fill="#747474" d="M8.3,14.4c-1.4-1.1-3.3-1.2-4.4,0c-1.3,1.3-1.1,3.4,0.4,4.9c1.2,1.2,2.8,1.5,3.9,1l-2.9-2.9L8.3,14.4z"/>
	</g>
</g>
<g>
	<g>
		<path fill="#747474" d="M7.8,5v2.2H5.5l2.5,2.5l1.6-1.3c0.2-0.3,0.5-0.5,0.7-0.8L7.8,5z"/>
	</g>
</g>
</svg>
