<?xml version="1.0" encoding="utf-8"?>
<!-- Generator: Adobe Illustrator 18.1.1, SVG Export Plug-In . SVG Version: 6.00 Build 0)  -->
<svg version="1.1" id="Layer_1" xmlns="http://www.w3.org/2000/svg" xmlns:xlink="http://www.w3.org/1999/xlink" x="0px" y="0px"
	 viewBox="0 0 24 24" enable-background="new 0 0 24 24" xml:space="preserve">
<polyline fill="none" stroke="#747474" stroke-width="1.3592" stroke-miterlimit="10" points="13.3,18 3.5,18 3.5,8.8 20.5,8.8 
	20.5,14.7 "/>
<g>
	<g>
		<path fill="#747474" d="M13.2,19.7c0.3,0,0.7,0,1-0.1v-3.3c-0.3,0-0.7-0.1-1-0.1c-2,0-3.5,0.7-3.5,1.5v0.3
			C9.7,19.1,11.2,19.7,13.2,19.7z"/>
		<path fill="#747474" d="M13.2,21.5c0.3,0,0.7,0,1-0.1v-1c-0.3,0-0.7,0.1-1,0.1c-1.6,0-3.1-0.5-3.4-1.2c0,0.1-0.1,0.2-0.1,0.3v0.3
			C9.7,20.8,11.2,21.5,13.2,21.5z"/>
		<path fill="#747474" d="M18.2,13.6c-2,0-3.5,0.7-3.5,1.5v0.3c0,0.9,1.5,1.5,3.5,1.5s3.5-0.7,3.5-1.5v-0.3
			C21.6,14.3,20.1,13.6,18.2,13.6z"/>
		<path fill="#747474" d="M18.2,17.9c-1.6,0-3.1-0.5-3.4-1.2c0,0.1-0.1,0.2-0.1,0.3v0.3c0,0.9,1.5,1.5,3.5,1.5s3.5-0.7,3.5-1.5V17
			c0-0.1,0-0.2-0.1-0.3C21.3,17.3,19.9,17.9,18.2,17.9z"/>
		<path fill="#747474" d="M18.2,19.6c-1.6,0-3.1-0.5-3.4-1.2c0,0.1-0.1,0.2-0.1,0.3v0.3c0,0.9,1.5,1.5,3.5,1.5s3.5-0.7,3.5-1.5v-0.3
			c0-0.1,0-0.2-0.1-0.3C21.3,19.1,19.9,19.6,18.2,19.6z"/>
		<path fill="#747474" d="M18.2,21.5c-1.6,0-3.1-0.5-3.4-1.2c0,0.1-0.1,0.2-0.1,0.3v0.3c0,0.9,1.5,1.5,3.5,1.5s3.5-0.7,3.5-1.5v-0.3
			c0-0.1,0-0.2-0.1-0.3C21.3,20.9,19.9,21.5,18.2,21.5z"/>
	</g>
</g>
<circle fill="none" stroke="#747474" stroke-width="0.9061" stroke-miterlimit="10" cx="11.3" cy="13.4" r="2"/>
<g>
	<g>
		<path fill="#747474" stroke="#747474" stroke-width="0.6796" stroke-miterlimit="10" d="M20.5,6.9l-16-3.6c-0.1,0-0.2,0-0.2,0
			c-0.1,0-0.1,0.1-0.1,0.2L3.4,7.3c-0.1,0.1,0,0.3,0.2,0.3c0.2,0,0.3,0,0.4-0.2l0.8-3.3l15.6,3.5c0,0,0,0,0.1,0
			c0.2,0,0.3-0.1,0.3-0.3C20.8,7.2,20.7,7.1,20.5,6.9z"/>
	</g>
</g>
<g>
	<g>
		<path fill="#747474" stroke="#747474" stroke-width="0.6796" stroke-miterlimit="10" d="M20.6,5.6l-9.6-4c-0.2-0.1-0.3,0-0.4,0.1
			L9.7,3.3c-0.1,0.2,0,0.3,0.1,0.4c0.2,0.1,0.3,0,0.4-0.1l0,0l0,0l0.7-1.3l9.3,3.9c0.2,0.1,0.3,0,0.4-0.2
			C20.8,5.8,20.7,5.7,20.6,5.6z"/>
	</g>
</g>
</svg>
