<?xml version="1.0" encoding="utf-8"?>
<!-- Generator: Adobe Illustrator 18.1.1, SVG Export Plug-In . SVG Version: 6.00 Build 0)  -->
<svg version="1.1" id="Layer_1" xmlns="http://www.w3.org/2000/svg" xmlns:xlink="http://www.w3.org/1999/xlink" x="0px" y="0px"
	 viewBox="0 0 110 110" enable-background="new 0 0 110 110" xml:space="preserve">
<symbol  id="Arrow_25" viewBox="-22.9 -13.1 45.7 26.3">
	<polygon fill="none" points="-22.9,-13.1 22.9,-13.1 22.9,13.1 -22.9,13.1 	"/>
	<g>
		<polygon fill="#747474" points="-22.9,-3.2 0.1,-3.2 0.1,-13.1 22.9,0 0.1,13.1 0.1,3.2 -22.9,3.2 		"/>
	</g>
</symbol>
<polygon fill="none" stroke="#747474" stroke-width="5.2632" stroke-miterlimit="10" points="23.7,47.5 4,64.6 4,89.1 84,105.4 
	104,89.6 104,62.8 "/>
<polyline fill="none" stroke="#747474" stroke-width="5.2632" stroke-miterlimit="10" points="6.1,64.6 83.5,80.4 102.9,64.6 "/>
<polyline fill="none" stroke="#747474" stroke-width="5.2632" stroke-miterlimit="10" points="4,72.5 84,88.8 102.9,75.1 "/>
<polyline fill="none" stroke="#747474" stroke-width="5.2632" stroke-miterlimit="10" points="4,81.7 83.7,98 102.9,84.1 "/>
<polygon fill="#747474" points="53.7,53.2 36.2,70.7 33.6,95.1 47.9,98 51.5,73.9 68,55.9 "/>
<polygon fill="#747474" points="33.6,95.1 32.3,103.5 39.8,101.3 45.5,105.4 47,100.2 "/>
<path fill="#747474" d="M86.8,50c0,0,3.6-13.9-3.1-22.1l-4.9,5.3l-2.3-20.5l20.7,2.8l-4.3,3.9c0,0,13.2,17.7,4,35.7L86.8,50z"/>
<path fill="#747474" d="M65.7,16.9c0,0-14,2.8-18.5,12.5l7,2.1L36.8,42.5l-6.6-19.8l5.4,2.1c0,0,10.1-19.6,30.3-19.2L65.7,16.9z"/>
</svg>
