<?xml version="1.0" encoding="utf-8"?>
<!-- Generator: Adobe Illustrator 18.1.1, SVG Export Plug-In . SVG Version: 6.00 Build 0)  -->
<svg version="1.1" id="Layer_1" xmlns="http://www.w3.org/2000/svg" xmlns:xlink="http://www.w3.org/1999/xlink" x="0px" y="0px"
	 viewBox="0 0 24 24" enable-background="new 0 0 24 24" xml:space="preserve">
<g>
	<g>
		<path fill="#747474" d="M21.4,10.3V7.3L12,2.6L2.5,7.3v3.1h2.2v5.5H3.7v2.2H2.6v3.3c1.1,0,18.4,0,18.9,0v-3.3h-1.1v-2.2h-1.1v-5.5
			C19.1,10.3,21.4,10.3,21.4,10.3z M9.3,20.3H3.7v-1.2h6L9.3,20.3z M9.9,18H4.8V17c0.6,0,4.8,0,5.4,0L9.9,18z M5.8,15.8v-5.4H7v5.5
			H5.8V15.8z M10.3,15.8H8.1v-5.4h2.2V15.8z M10.4,20.3l0.9-3.3h1.4l0.9,3.3H10.4z M11.4,15.8v-5.4h1.1v5.5h-1.1V15.8z M13.7,17
			c0.6,0,4.8,0,5.4,0V18H14L13.7,17z M13.6,15.8v-5.4h2.2v5.5h-2.2V15.8z M16.9,15.8v-5.4h1.2v5.5h-1.2V15.8z M20.2,19.2v1.2h-5.6
			l-0.3-1.2H20.2z M3.7,9.2V7.9l8.3-4l8.3,4v1.3C13.1,9.2,10.8,9.2,3.7,9.2z"/>
	</g>
</g>
<rect x="7" y="6.9" fill="#747474" width="10.2" height="1.5"/>
</svg>
