<?xml version="1.0" encoding="utf-8"?>
<!-- Generator: Adobe Illustrator 18.1.1, SVG Export Plug-In . SVG Version: 6.00 Build 0)  -->
<svg version="1.1" id="Layer_1" xmlns="http://www.w3.org/2000/svg" xmlns:xlink="http://www.w3.org/1999/xlink" x="0px" y="0px"
	 viewBox="0 0 24 24" enable-background="new 0 0 24 24" xml:space="preserve">
<g>
	<g>
		<path fill="#747474" d="M18.9,5.6v13.8H6.2c-0.5,0-1.1-0.4-1.1-1.1c0-0.5,0.4-1.1,1.1-1.1h11.7V3.5H6.2C5,3.5,4,4.4,4,5.6v12.8
			c0,1.2,1,2.1,2.1,2.1H20V5.6H18.9z M8.8,8.5c0-0.2,0.2-0.3,0.4-0.3c0.2,0,0.4,0.1,0.5,0.3H11V7.3c-0.2,0-0.4-0.2-0.4-0.5
			c0-0.2,0.2-0.4,0.4-0.5c0-0.2,0.2-0.3,0.5-0.3s0.4,0.1,0.5,0.3c0.2,0.1,0.4,0.3,0.4,0.5s-0.2,0.4-0.4,0.5v1.2h1.2
			c0.1-0.2,0.3-0.3,0.5-0.3s0.4,0.1,0.5,0.3c0.2,0,0.4,0.3,0.4,0.5s-0.2,0.4-0.4,0.5c0,0.3-0.2,0.4-0.5,0.4s-0.5-0.2-0.5-0.4h-1.2
			v3.9c0.2,0.1,0.4,0.3,0.4,0.5c0,0.3-0.2,0.5-0.4,0.5c0,0.3-0.2,0.4-0.5,0.4S11,14.8,11,14.5c-0.2-0.1-0.4-0.3-0.4-0.5
			c0-0.2,0.2-0.4,0.4-0.5V9.6H9.9c0,0.2-0.2,0.4-0.5,0.4c-0.3,0.1-0.5-0.1-0.6-0.4c-0.2,0-0.3-0.3-0.3-0.5S8.5,8.6,8.8,8.5z"/>
	</g>
</g>
</svg>
