<?xml version="1.0" encoding="utf-8"?>
<!-- Generator: Adobe Illustrator 18.1.1, SVG Export Plug-In . SVG Version: 6.00 Build 0)  -->
<svg version="1.1" id="Layer_1" xmlns="http://www.w3.org/2000/svg" xmlns:xlink="http://www.w3.org/1999/xlink" x="0px" y="0px"
	 viewBox="0 0 700 600" enable-background="new 0 0 700 600" xml:space="preserve">
<path fill="none" stroke="#747474" stroke-width="38.5248" stroke-miterlimit="10" d="M132.8,84v380.9c0,13,9.8,23.6,21.9,23.6
	h310.9c12.1,0,21.9-10.6,21.9-23.6V49.6c0-13-9.8-23.6-21.9-23.6H186.5L132.8,84z"/>
<path fill="none" stroke="#747474" stroke-width="40" stroke-miterlimit="10" d="M194.6,505.6v21.6v23.6c0,13,10.6,23.6,23.6,23.6
	h335.2c13,0,23.6-10.6,23.6-23.6V135.6c0-13-10.6-23.6-23.6-23.6h-22.5h-43.4"/>
<line fill="none" stroke="#747474" stroke-width="23.4314" stroke-miterlimit="10" x1="182.6" y1="291.6" x2="438.6" y2="291.6"/>
<line fill="none" stroke="#747474" stroke-width="23.4314" stroke-miterlimit="10" x1="182.6" y1="343.2" x2="438.6" y2="343.2"/>
<line fill="none" stroke="#747474" stroke-width="23.4314" stroke-miterlimit="10" x1="182.6" y1="393.4" x2="438.6" y2="393.4"/>
<polyline fill="none" stroke="#747474" stroke-width="27" stroke-miterlimit="10" points="201.5,26 201.5,103.2 132.8,103.2 "/>
<line fill="none" stroke="#747474" stroke-width="23.4314" stroke-miterlimit="10" x1="182.6" y1="237.6" x2="438.6" y2="237.6"/>
<line fill="none" stroke="#747474" stroke-width="23.4314" stroke-miterlimit="10" x1="182.6" y1="176.6" x2="438.6" y2="176.6"/>
</svg>
