<?xml version="1.0" encoding="utf-8"?>
<!-- Generator: Adobe Illustrator 18.1.1, SVG Export Plug-In . SVG Version: 6.00 Build 0)  -->
<svg version="1.1" id="Layer_1" xmlns="http://www.w3.org/2000/svg" xmlns:xlink="http://www.w3.org/1999/xlink" x="0px" y="0px"
	 viewBox="0 0 24 24" enable-background="new 0 0 24 24" xml:space="preserve">
<g>
	<g>
		<path fill="#747474" d="M10.3,18.2c0.5,0,0.9,0,1.2-0.1v-4.4c-0.5,0-0.8-0.1-1.2-0.1c-2.5,0-4.6,0.9-4.6,2v0.5
			C5.8,17.3,7.9,18.2,10.3,18.2z"/>
		<path fill="#747474" d="M10.3,20.5c0.5,0,0.9,0,1.2-0.1V19c-0.5,0-0.8,0.1-1.2,0.1c-2.3,0-4.1-0.7-4.5-1.7
			c-0.1,0.1-0.1,0.2-0.1,0.5v0.5C5.8,19.6,7.9,20.5,10.3,20.5z"/>
		<path fill="#747474" d="M17,10.1c-2.5,0-4.6,0.9-4.6,2v0.5c0,1.1,2,2,4.6,2c2.5,0,4.6-0.9,4.6-2v-0.5C21.5,11,19.5,10.1,17,10.1z"
			/>
		<path fill="#747474" d="M17,15.7c-2.3,0-4.1-0.7-4.5-1.7c-0.1,0.1-0.1,0.2-0.1,0.5v0.5c0,1.1,2,2,4.6,2c2.5,0,4.6-0.9,4.6-2v-0.5
			c0-0.1,0-0.3-0.1-0.5C21.1,15.1,19.2,15.7,17,15.7z"/>
		<path fill="#747474" d="M17,18c-2.3,0-4.1-0.7-4.5-1.7c-0.1,0.1-0.1,0.2-0.1,0.5v0.5c0,1.1,2,2,4.6,2c2.5,0,4.6-0.9,4.6-2v-0.5
			c0-0.1,0-0.3-0.1-0.5C21.1,17.3,19.2,18,17,18z"/>
		<path fill="#747474" d="M17,20.5c-2.3,0-4.1-0.7-4.5-1.7c-0.1,0.1-0.1,0.2-0.1,0.5v0.5c0,1.1,2,2,4.6,2c2.5,0,4.6-0.9,4.6-2v-0.5
			c0-0.1,0-0.3-0.1-0.5C21.1,19.8,19.2,20.5,17,20.5z"/>
	</g>
</g>
<polyline fill="none" stroke="#747474" stroke-width="1.3235" stroke-miterlimit="10" points="8.5,16.2 3.7,16.2 3.7,5.7 15.3,5.7 
	15.3,14.4 "/>
<rect x="6.3" y="8.3" fill="#747474" width="4.4" height="1.6"/>
<rect x="6.3" y="11.1" fill="#747474" width="5.5" height="1.6"/>
<polyline fill="none" stroke="#747474" stroke-width="1.5247" stroke-miterlimit="10" points="8.7,6.2 8.7,2.1 19.5,2.1 19.5,11.4 
	"/>
</svg>
